<svg width="1800" height="788" viewBox="0 0 1800 788" fill="none" xmlns="http://www.w3.org/2000/svg">
<rect y="393" width="1800" height="1" fill="white" fill-opacity="0.7"/>
<path d="M1041.5 394C1041.5 611.325 865.547 787.5 648.5 787.5C431.453 787.5 255.5 611.325 255.5 394C255.5 176.675 431.453 0.5 648.5 0.5C865.547 0.5 1041.5 176.675 1041.5 394Z" stroke="white" stroke-opacity="0.7"/>
<path d="M1300.5 390.5C1300.5 604.786 1126.79 778.5 912.5 778.5C698.214 778.5 524.5 604.786 524.5 390.5C524.5 176.214 698.214 2.5 912.5 2.5C1126.79 2.5 1300.5 176.214 1300.5 390.5Z" stroke="white" stroke-opacity="0.7"/>
<path d="M1599.5 390.5C1599.5 604.786 1425.79 778.5 1211.5 778.5C997.214 778.5 823.5 604.786 823.5 390.5C823.5 176.214 997.214 2.5 1211.5 2.5C1425.79 2.5 1599.5 176.214 1599.5 390.5Z" stroke="white" stroke-opacity="0.7"/>
</svg>
