<svg width="103" height="115" viewBox="0 0 103 115" fill="none" xmlns="http://www.w3.org/2000/svg">
<path d="M58.5987 91.3815L55.7711 83.2486C49.6248 85.7728 43.6981 85.8811 37.991 83.5735C33.3351 81.6911 30.1855 79.2527 28.5421 76.2583C26.9189 73.2139 26.1873 70.4135 26.3472 67.857C26.5572 65.3208 26.9658 63.3018 27.5731 61.7999C28.0184 60.6985 28.8307 59.3378 30.0099 57.7177C31.2595 56.0678 33.0454 54.46 35.3676 52.8943C37.7398 51.3488 40.5914 50.3467 43.9223 49.8878C42.739 47.196 41.9557 44.8115 41.5724 42.7343C41.189 40.6572 41.473 38.4421 42.4244 36.0892C43.1328 34.337 44.3472 32.702 46.0676 31.1842C47.8082 29.6163 49.928 28.5513 52.427 27.989C54.976 27.447 57.6773 27.7528 60.5309 28.9066C63.1842 29.9794 65.224 31.5613 66.6501 33.6524C68.0966 35.6934 68.9257 37.8925 69.1375 40.2498C69.4197 42.5772 69.1761 44.6922 68.407 46.5946C67.3342 49.2479 65.4566 51.2264 62.7744 52.53C60.1423 53.8539 56.6542 54.7735 52.3104 55.2888L59.1877 74.5824C61.4194 73.0966 64.5522 70.6064 68.5863 67.1117L72.5102 71.6688C72.148 71.9884 70.8101 73.1366 68.4964 75.1134C66.2029 77.0402 63.7646 78.8211 61.1814 80.456L66.1082 94.4177L58.5987 91.3815ZM33.13 64.0467C32.3204 66.0492 32.1961 68.4454 32.7573 71.2351C33.3388 73.9748 35.8322 76.2353 40.2378 78.0166C44.5432 79.7573 49.0511 79.6287 53.7614 77.6307L46.0215 55.7166C42.24 55.9933 39.308 57.0504 37.2255 58.8877C35.1429 60.725 33.7778 62.4447 33.13 64.0467ZM47.9813 38.336C47.4956 39.5375 47.3756 40.7705 47.6216 42.0349C47.9379 43.2694 48.5237 44.8459 49.3789 46.7644L50.4669 49.4759C54.2984 49.2194 57.1531 48.7136 59.0311 47.9585C60.9293 47.1533 62.2023 45.9498 62.85 44.3477C63.5787 42.5455 63.6006 40.6905 62.9158 38.7827C62.231 36.8749 60.6871 35.4352 58.2841 34.4636C55.781 33.4515 53.6202 33.3933 51.8019 34.289C49.9836 35.1848 48.71 36.5337 47.9813 38.336Z" fill="white"/>
<path d="M58.5987 91.3815L57.6542 91.7099L57.8032 92.1385L58.2239 92.3086L58.5987 91.3815ZM55.7711 83.2486L56.7157 82.9202L56.3687 81.9222L55.3912 82.3236L55.7711 83.2486ZM28.5421 76.2583L27.6596 76.7288L27.6654 76.7394L28.5421 76.2583ZM26.3472 67.857L25.3506 67.7745L25.3498 67.7845L25.3492 67.7946L26.3472 67.857ZM30.0099 57.7177L29.2127 57.1139L29.207 57.1215L29.2014 57.1292L30.0099 57.7177ZM35.3676 52.8943L34.8217 52.0564L34.8151 52.0607L34.8085 52.0651L35.3676 52.8943ZM43.9223 49.8878L44.0588 50.8784L45.3707 50.6977L44.8378 49.4853L43.9223 49.8878ZM41.5724 42.7343L40.589 42.9158L40.589 42.9158L41.5724 42.7343ZM46.0676 31.1842L46.7292 31.9341L46.7369 31.9272L46.0676 31.1842ZM52.427 27.989L52.219 27.0108L52.2075 27.0134L52.427 27.989ZM66.6501 33.6524L65.824 34.2158L65.8291 34.2233L65.8343 34.2306L66.6501 33.6524ZM69.1375 40.2498L68.1415 40.3393L68.1429 40.3547L68.1448 40.3701L69.1375 40.2498ZM62.7744 52.53L62.3372 51.6305L62.3251 51.6366L62.7744 52.53ZM52.3104 55.2888L52.1926 54.2957L50.9474 54.4434L51.3684 55.6245L52.3104 55.2888ZM59.1877 74.5824L58.2458 74.9182L58.6758 76.1246L59.7419 75.4148L59.1877 74.5824ZM68.5863 67.1117L69.3441 66.4592L68.6896 65.6992L67.9315 66.3559L68.5863 67.1117ZM72.5102 71.6688L73.1718 72.4187L73.9127 71.7651L73.268 71.0163L72.5102 71.6688ZM68.4964 75.1134L69.1396 75.8791L69.146 75.8737L68.4964 75.1134ZM61.1814 80.456L60.6466 79.611L59.9732 80.0372L60.2384 80.7888L61.1814 80.456ZM66.1082 94.4177L65.7333 95.3448L67.789 96.176L67.0512 94.085L66.1082 94.4177ZM32.7573 71.2351L31.7769 71.4323L31.7791 71.4427L32.7573 71.2351ZM53.7614 77.6307L54.1519 78.5513L55.0175 78.1842L54.7044 77.2976L53.7614 77.6307ZM46.0215 55.7166L46.9644 55.3836L46.7101 54.6635L45.9485 54.7193L46.0215 55.7166ZM37.2255 58.8877L37.887 59.6376L37.887 59.6376L37.2255 58.8877ZM47.6216 42.0349L46.64 42.2258L46.6456 42.2546L46.6529 42.283L47.6216 42.0349ZM49.3789 46.7644L50.307 46.392L50.3 46.3745L50.2923 46.3572L49.3789 46.7644ZM50.4669 49.4759L49.5388 49.8483L49.8092 50.5222L50.5336 50.4737L50.4669 49.4759ZM59.0311 47.9585L59.4041 48.8863L59.4129 48.8828L59.4216 48.8791L59.0311 47.9585ZM51.8019 34.289L52.2438 35.1861L52.2438 35.1861L51.8019 34.289ZM59.5433 91.0531L56.7157 82.9202L54.8266 83.577L57.6542 91.7099L59.5433 91.0531ZM55.3912 82.3236C49.4655 84.7571 43.8104 84.8478 38.3658 82.6464L37.6161 84.5006C43.5858 86.9143 49.7842 86.7884 56.151 84.1736L55.3912 82.3236ZM38.3658 82.6464C33.8264 80.811 30.9095 78.4935 29.4187 75.7772L27.6654 76.7394C29.4614 80.0118 32.8439 82.5711 37.6161 84.5006L38.3658 82.6464ZM29.4245 75.7878C27.8592 72.852 27.2003 70.2374 27.3453 67.9195L25.3492 67.7946C25.1743 70.5896 25.9786 73.5758 27.6597 76.7288L29.4245 75.7878ZM27.3438 67.9395C27.5496 65.4534 27.9458 63.5457 28.5002 62.1747L26.646 61.4251C25.9858 63.0578 25.5648 65.1883 25.3506 67.7745L27.3438 67.9395ZM28.5002 62.1747C28.901 61.1833 29.6592 59.8987 30.8184 58.3062L29.2014 57.1292C28.0021 58.7769 27.1358 60.2137 26.646 61.4251L28.5002 62.1747ZM30.8071 58.3214C31.9714 56.7841 33.6656 55.2479 35.9266 53.7234L34.8085 52.0651C32.4251 53.6721 30.5476 55.3515 29.2127 57.1139L30.8071 58.3214ZM35.9134 53.7322C38.1411 52.2809 40.8469 51.3209 44.0588 50.8784L43.7858 48.8971C40.336 49.3724 37.3386 50.4168 34.8217 52.0564L35.9134 53.7322ZM44.8378 49.4853C43.6745 46.839 42.9208 44.5309 42.5558 42.5528L40.589 42.9158C40.9906 45.0921 41.8036 47.553 43.0068 50.2902L44.8378 49.4853ZM42.5558 42.5528C42.2133 40.6975 42.4569 38.6766 43.3515 36.464L41.4973 35.7144C40.4892 38.2077 40.1647 40.6169 40.589 42.9158L42.5558 42.5528ZM43.3515 36.464C43.9906 34.8833 45.1007 33.3708 46.7292 31.9341L45.406 30.4343C43.5938 32.0332 42.2751 33.7907 41.4973 35.7144L43.3515 36.464ZM46.7369 31.9272C48.3383 30.4847 50.2989 29.4928 52.6465 28.9646L52.2075 27.0134C49.5572 27.6097 47.2781 28.748 45.3983 30.4412L46.7369 31.9272ZM52.635 28.9671C54.9558 28.4736 57.4531 28.7408 60.1561 29.8337L60.9057 27.9795C57.9015 26.7648 54.9962 26.4203 52.219 27.0109L52.635 28.9671ZM60.1561 29.8337C62.6511 30.8425 64.5232 32.3086 65.824 34.2158L67.4763 33.0889C65.9248 30.8141 63.7174 29.1163 60.9057 27.9795L60.1561 29.8337ZM65.8343 34.2306C67.1846 36.136 67.9464 38.1681 68.1415 40.3393L70.1335 40.1603C69.9049 37.6169 69.0085 35.2508 67.466 33.0742L65.8343 34.2306ZM68.1448 40.3701C68.4095 42.5539 68.1771 44.4954 67.4799 46.2197L69.334 46.9694C70.1752 44.889 70.4298 42.6006 70.1302 40.1294L68.1448 40.3701ZM67.4799 46.2197C66.504 48.6332 64.8072 50.4302 62.3373 51.6306L63.2115 53.4294C66.1061 52.0226 68.1643 49.8626 69.334 46.9694L67.4799 46.2197ZM62.3251 51.6366C59.8342 52.8895 56.4715 53.7881 52.1926 54.2957L52.4282 56.2818C56.8369 55.7588 60.4503 54.8183 63.2237 53.4234L62.3251 51.6366ZM51.3684 55.6245L58.2458 74.9182L60.1296 74.2467L53.2523 54.953L51.3684 55.6245ZM59.7419 75.4148C62.0281 73.8927 65.1998 71.3684 69.2411 67.8676L67.9315 66.3559C63.9047 69.8443 60.8106 72.3006 58.6335 73.75L59.7419 75.4148ZM67.8285 67.7642L71.7524 72.3213L73.268 71.0163L69.3441 66.4592L67.8285 67.7642ZM71.8486 70.919C71.4941 71.2318 70.1644 72.3729 67.8468 74.3531L69.146 75.8737C71.4557 73.9002 72.802 72.745 73.1718 72.4187L71.8486 70.919ZM67.8531 74.3478C65.5947 76.2451 63.1927 77.9996 60.6466 79.611L61.7162 81.301C64.3365 79.6426 66.8111 77.8353 69.1396 75.8791L67.8531 74.3478ZM60.2384 80.7888L65.1651 94.7505L67.0512 94.085L62.1244 80.1232L60.2384 80.7888ZM66.483 93.4906L58.9736 90.4544L58.2239 92.3086L65.7333 95.3448L66.483 93.4906ZM32.2029 63.6719C31.3 65.9051 31.1892 68.5106 31.777 71.4323L33.7377 71.0379C33.203 68.3801 33.3407 66.1933 34.0571 64.4215L32.2029 63.6719ZM31.7791 71.4427C32.4667 74.6828 35.3642 77.1247 39.8629 78.9436L40.6126 77.0895C36.3003 75.3459 34.2108 73.2668 33.7355 71.0275L31.7791 71.4427ZM39.8629 78.9436C44.4404 80.7944 49.2247 80.6413 54.1519 78.5513L53.3709 76.7101C48.8774 78.6161 44.6459 78.7202 40.6126 77.0895L39.8629 78.9436ZM54.7044 77.2976L46.9644 55.3836L45.0785 56.0496L52.8185 77.9637L54.7044 77.2976ZM45.9485 54.7193C42.0276 55.0062 38.8609 56.1113 36.5639 58.1378L37.887 59.6376C39.7551 57.9895 42.4524 56.9805 46.0944 56.7139L45.9485 54.7193ZM36.5639 58.1378C34.4279 60.0223 32.9338 61.8643 32.2029 63.6719L34.0571 64.4215C34.6217 63.0251 35.8579 61.4277 37.887 59.6376L36.5639 58.1378ZM47.0543 37.9612C46.4964 39.3409 46.3569 40.7703 46.64 42.2258L48.6032 41.8439C48.3944 40.7706 48.4947 39.7342 48.9084 38.7108L47.0543 37.9612ZM46.6529 42.283C46.9892 43.5956 47.6001 45.2301 48.4656 47.1716L50.2923 46.3572C49.4473 44.4618 48.8867 42.9433 48.5903 41.7867L46.6529 42.283ZM48.4508 47.1368L49.5388 49.8483L51.3949 49.1035L50.307 46.392L48.4508 47.1368ZM50.5336 50.4737C54.3938 50.2153 57.3763 49.7017 59.4041 48.8863L58.658 47.0307C56.9299 47.7256 54.203 48.2236 50.4001 48.4781L50.5336 50.4737ZM59.4216 48.8791C61.5134 47.9918 63.0111 46.6171 63.7771 44.7226L61.9229 43.9729C61.3934 45.2824 60.3452 46.3148 58.6406 47.0379L59.4216 48.8791ZM63.7771 44.7226C64.6021 42.6821 64.6209 40.573 63.857 38.4448L61.9746 39.1205C62.5803 40.8079 62.5553 42.4088 61.9229 43.9729L63.7771 44.7226ZM63.857 38.4448C63.0506 36.1983 61.2475 34.5831 58.6589 33.5365L57.9093 35.3907C60.1268 36.2873 61.4114 37.5514 61.9746 39.1205L63.857 38.4448ZM58.6589 33.5365C55.984 32.4549 53.5113 32.3322 51.36 33.392L52.2438 35.1861C53.7291 34.4544 55.5779 34.4481 57.9093 35.3907L58.6589 33.5365ZM51.36 33.392C49.3316 34.3912 47.8793 35.9207 47.0543 37.9612L48.9084 38.7108C49.5408 37.1468 50.6355 35.9783 52.2438 35.1861L51.36 33.392Z" fill="white"/>
<circle cx="51.5" cy="60.5" r="48.5" stroke="white" stroke-width="6"/>
</svg>
