<svg width="30" height="30" viewBox="0 0 30 30" fill="none" xmlns="http://www.w3.org/2000/svg">
<path fill-rule="evenodd" clip-rule="evenodd" d="M16.25 11.25C16.25 8.78179 17.2756 6.48096 19.0498 4.83456L20.8967 3.12059L18.4146 2.68695C17.7043 2.56286 16.9809 2.5 16.25 2.5C9.34644 2.5 3.75 8.09644 3.75 15C3.75 21.9036 9.34644 27.5 16.25 27.5C20.4817 27.5 24.3553 25.3798 26.6583 21.9244L28.0539 19.8303L25.542 19.9835C25.3622 19.9945 25.1815 20 25 20C20.1675 20 16.25 16.0825 16.25 11.25ZM16.25 25C10.7272 25 6.25 20.5228 6.25 15C6.25 9.68489 10.3967 5.33828 15.6314 5.01882C14.4209 6.8356 13.75 8.98979 13.75 11.25C13.75 16.7988 17.7671 21.4093 23.0518 22.3319C21.2348 24.0192 18.8262 25 16.25 25Z" fill="white"/>
</svg>
